Coordinates
version=1
nRows=16
nColumns=40
inDegrees=yes

Units are S.I. units (second, meters, Newtons, ...)
Angles are in degrees.

endheader
time	pelvis_tilt	pelvis_list	pelvis_rotation	pelvis_tx	pelvis_ty	pelvis_tz	hip_flexion_r	hip_adduction_r	hip_rotation_r	knee_angle_r	knee_angle_r_beta	ankle_angle_r	subtalar_angle_r	mtp_angle_r	hip_flexion_l	hip_adduction_l	hip_rotation_l	knee_angle_l	knee_angle_l_beta	ankle_angle_l	subtalar_angle_l	mtp_angle_l	lumbar_extension	lumbar_bending	lumbar_rotation	arm_flex_r	arm_add_r	arm_rot_r	elbow_flex_r	pro_sup_r	wrist_flex_r	wrist_dev_r	arm_flex_l	arm_add_l	arm_rot_l	elbow_flex_l	pro_sup_l	wrist_flex_l	wrist_dev_l
      0.74000000	      1.11293725	     -5.27241534	      0.85670483	     -0.68162927	      0.88034480	     -1.01640459	     22.69810892	      4.06124773	    -17.02859634	    -19.00934081	     -0.33177559	     -7.57111236	     -1.54823180	      1.57419551	    -11.29046211	      4.02840758	      3.76119391	    -26.44718908	     -0.46159053	      9.53191557	      0.55724262	     -8.51297207	     -7.57322506	      9.53650235	     -4.70536816	      3.85950314	     -9.93768967	     13.25855100	     13.05964703	     89.95437384	      0.00000000	      0.00000000	     19.16111185	     12.48434626	     -8.23726111	     48.18262628	     89.95437384	      0.00000000	      0.00000000
      0.75000000	      1.13012686	     -5.60785485	      0.77556787	     -0.67058836	      0.88140184	     -1.01536525	     22.25550341	      4.62474169	    -16.53471882	    -19.66266261	     -0.34317820	     -6.78214492	     -1.67315405	      1.39221233	    -10.69864007	      4.48650870	      3.95345583	    -28.66971376	     -0.50038090	      7.76530797	      1.14743893	     -8.14345233	     -7.49133752	      9.94530683	     -4.45882340	      3.82679862	    -10.01618716	     13.46404286	     13.06359790	     89.95437384	      0.00000000	      0.00000000	     18.53383472	     12.15145482	     -7.88205432	     48.35643717	     89.95437384	      0.00000000	      0.00000000
      0.76000000	      0.87432884	     -6.40051315	      0.67688118	     -0.65936934	      0.88219645	     -1.01367380	     21.88159574	      5.80338480	    -16.01368238	    -19.81370505	     -0.34581439	     -6.21793659	     -2.92511848	      1.36424973	     -9.47914921	      5.77417425	      4.98470983	    -31.42092548	     -0.54839860	      5.50639402	      0.51876178	     -8.47036130	     -7.05748603	     10.80357051	     -4.26335443	      3.79264570	    -10.16853338	     14.33100214	     13.07613260	     89.95437384	      0.00000000	      0.00000000	     17.65306217	     11.82998953	     -7.31736784	     48.59137191	     89.95437384	      0.00000000	      0.00000000
      0.77000000	      1.01655802	     -6.52599038	      0.48258475	     -0.64806914	      0.88377579	     -1.01249327	     21.16925481	      6.04124638	    -15.90139515	    -20.36085052	     -0.35536388	     -5.26618478	     -2.89676091	      1.21540115	     -8.78088359	      6.09430681	      5.63086337	    -33.82564476	     -0.59036887	      2.88228123	      1.49180173	     -7.92507063	     -7.08605815	     10.94758101	     -3.87545492	      3.76540273	    -10.22189220	     14.55552514	     13.12516665	     89.95437384	      0.00000000	      0.00000000	     17.07752221	     11.48993699	     -7.16877820	     48.31127139	     89.95437384	      0.00000000	      0.00000000
      0.78000000	      1.13529494	     -6.85962406	      0.41892447	     -0.63673505	      0.88529205	     -1.01117666	     20.30288743	      6.50664812	    -15.82682525	    -20.58405803	     -0.35925959	     -4.28754873	     -2.61436789	      1.05676094	     -7.81526596	      6.83185902	      6.49548529	    -36.46807413	     -0.63648797	     -0.20773219	      2.52336455	     -7.35579547	     -7.05212221	     11.31263023	     -3.62991057	      3.80152104	    -10.24186433	     14.96168841	     13.08743325	     89.95437384	      0.00000000	      0.00000000	     16.40718172	     11.22710235	     -7.11011105	     48.01280559	     89.95437384	      0.00000000	      0.00000000
      0.79000000	      1.16707126	     -7.44510592	      0.37644939	     -0.62533926	      0.88659604	     -1.00948717	     19.44223976	      7.24960656	    -16.02279791	    -20.63465835	     -0.36014273	     -3.38406409	     -2.21667179	      0.93559545	     -6.63834144	      8.03457405	      7.51856820	    -39.15323848	     -0.68335292	     -4.00120879	      3.47765181	     -6.76694159	     -6.89800112	     11.90447971	     -3.35333586	      3.79071582	    -10.32428206	     15.56637160	     13.18422068	     89.95437384	      0.00000000	      0.00000000	     15.69929802	     10.94727367	     -7.11683445	     47.67342814	     89.95437384	      0.00000000	      0.00000000
      0.80000000	      1.20280169	     -7.84270284	      0.35896511	     -0.61455316	      0.88771883	     -1.00801258	     18.58163128	      7.78881364	    -16.04521539	    -20.57530422	     -0.35910680	     -2.62732540	     -1.70724328	      0.85161640	     -5.30461286	      8.99242001	      8.21532090	    -41.88991281	     -0.73111690	     -7.62600931	      4.59785310	     -6.17187411	     -6.85084698	     12.30972324	     -3.07841753	      3.78813851	    -10.46182824	     16.47919076	     13.57585437	     89.95437384	      0.00000000	      0.00000000	     15.11078243	     10.64279083	     -7.08086860	     47.14191703	     89.95437384	      0.00000000	      0.00000000
      0.81000000	      1.26265536	     -8.20519901	      0.32040190	     -0.60381793	      0.88866036	     -1.00664686	     17.70083900	      8.29149139	    -16.05495608	    -20.52987428	     -0.35831390	     -1.88721782	     -1.23531827	      0.77043262	     -3.99514678	      9.86168710	      8.60112268	    -44.51028045	     -0.77685094	    -10.67654488	      5.91998945	     -5.63362650	     -6.81917734	     12.67540954	     -2.78454861	      3.82008352	    -10.63922812	     17.47887188	     13.98340414	     89.95437384	      0.00000000	      0.00000000	     14.54908085	     10.39194793	     -7.22934099	     46.54713121	     89.95437384	      0.00000000	      0.00000000
      0.82000000	      1.12669450	     -8.46455424	      0.33985906	     -0.59376309	      0.88899514	     -1.00558291	     17.17604192	      8.63652331	    -16.14422900	    -20.66440409	     -0.36066189	     -1.26817409	     -0.75529514	      0.78409562	     -2.25343722	     10.56488959	      8.73605562	    -47.35104885	     -0.82643171	    -11.91467458	      7.63796234	     -5.43799249	     -6.64011777	     12.94137633	     -2.55292904	      3.83440866	    -11.08196632	     19.84879459	     14.71207288	     89.95437384	      0.00000000	      0.00000000	     14.11591781	     10.09138646	     -7.34107898	     45.74239668	     89.95437384	      0.00000000	      0.00000000
      0.83000000	      1.51905138	     -8.63239869	      0.40859619	     -0.58352512	      0.88994878	     -1.00457266	     15.99543932	      8.90418910	    -16.18055140	    -20.72498250	     -0.36171918	     -0.33868571	     -0.41656159	      0.62979243	     -1.26978147	     11.17187869	      8.93727297	    -49.78389785	     -0.86889293	    -12.06548661	      8.15459922	     -5.39839044	     -7.06556762	     13.08595164	     -2.28245233	      4.11015497	    -11.13075714	     20.19820432	     14.91897530	     89.95437384	      0.00000000	      0.00000000	     13.78188492	      9.85372827	     -7.49623841	     44.88093297	     89.95437384	      0.00000000	      0.00000000
      0.84000000	      1.75909083	     -8.90802136	      0.55262923	     -0.57369831	      0.89044049	     -1.00364076	     14.96476339	      9.24865740	    -16.45361296	    -20.65858495	     -0.36056033	      0.53284627	      0.06750310	      0.44805844	      0.05665051	     11.89194560	      8.93503773	    -52.29294429	     -0.91268405	    -11.31366691	      8.47794195	     -5.52623991	     -7.35751575	     13.34714237	     -2.02904058	      4.31812607	    -11.28667308	     20.64416753	     15.37149351	     89.95437384	      0.00000000	      0.00000000	     13.48976447	      9.60196124	     -7.82605127	     43.88224527	     89.95437384	      0.00000000	      0.00000000
      0.85000000	      2.04526111	     -9.11519166	      0.59237979	     -0.56415257	      0.89088137	     -1.00245634	     13.94308936	      9.56443665	    -16.51878058	    -20.69014633	     -0.36111118	      1.26449072	      0.61277864	      0.25839771	      1.31128861	     12.53106243	      9.02329808	    -54.55479993	     -0.95216088	    -10.53470330	      8.64805096	     -5.66766843	     -7.76426418	     13.49134772	     -1.69034666	      4.67046520	    -11.37262088	     21.06603629	     15.65468961	     89.95437384	      0.00000000	      0.00000000	     13.26825895	      9.38676017	     -8.11158399	     42.75712814	     89.95437384	      0.00000000	      0.00000000
      0.86000000	      2.44140742	     -9.25943393	      0.80095940	     -0.55459303	      0.89149574	     -1.00163406	     12.76447641	      9.77174317	    -16.69526731	    -20.66456045	     -0.36066462	      2.02198916	      1.03532751	      0.08356990	      2.52351458	     13.06786114	      8.95354749	    -56.59965132	     -0.98785027	     -9.97749171	      8.57429805	     -5.85215953	     -8.27175137	     13.57941430	     -1.52089207	      5.10713732	    -11.40795695	     21.39981170	     15.80878416	     89.95437384	      0.00000000	      0.00000000	     13.05887596	      9.16523758	     -8.39733700	     41.49418883	     89.95437384	      0.00000000	      0.00000000
      0.87000000	      2.81146365	     -9.41527754	      1.00573573	     -0.54541959	      0.89216678	     -1.00085556	     11.56924598	      9.98352861	    -17.00773581	    -20.49537263	     -0.35771173	      2.71682617	      1.48966753	     -0.08382417	      3.81500105	     13.55978483	      8.81547366	    -58.42551264	     -1.01971756	     -9.39266364	      8.30357837	     -6.10882757	     -8.80733870	     13.68035568	     -1.32616231	      5.62817957	    -11.42483561	     21.69075635	     15.90081343	     89.95437384	      0.00000000	      0.00000000	     12.97542326	      8.90096915	     -8.65834524	     40.02577130	     89.95437384	      0.00000000	      0.00000000
      0.88000000	      3.01046791	     -9.66268944	      1.28908348	     -0.53632413	      0.89252821	     -1.00012437	     10.53455085	     10.22091334	    -17.81791010	    -20.21772933	     -0.35286594	      3.24983066	      2.76844600	     -0.48173791	      5.37547651	     14.13093407	      8.44768937	    -60.11394984	     -1.04918635	     -8.83307548	      6.95469171	     -7.07855009	     -9.11891184	     13.88307497	     -1.21186130	      6.08166496	    -11.56606364	     22.44964524	     16.13862134	     89.95437384	      0.00000000	      0.00000000	     12.83170772	      8.77086865	     -9.43995871	     38.50288865	     89.95437384	      0.00000000	      0.00000000
      0.89000000	      3.39377204	     -9.62383247	      1.45730878	     -0.52704874	      0.89346103	     -0.99959897	      9.22200298	     10.27250122	    -17.92701906	    -19.87528723	     -0.34688920	      3.90945904	      3.45914839	     -0.77855063	      6.52188173	     14.20086570	      8.17731883	    -61.27267756	     -1.06940996	     -8.16310899	      6.21299127	     -7.82696227	     -9.63083079	     13.77922796	     -1.03824562	      6.60615519	    -11.58274201	     22.73125573	     16.18410291	     89.95437384	      0.00000000	      0.00000000	     12.76712516	      8.47500712	     -9.83300709	     36.60992931	     89.95437384	      0.00000000	      0.00000000
